<?xml version="1.0" encoding="utf-8"?>
<!-- Generator: Adobe Illustrator 26.0.1, SVG Export Plug-In . SVG Version: 6.00 Build 0)  -->
<svg version="1.1" id="Слой_1" xmlns="http://www.w3.org/2000/svg" xmlns:xlink="http://www.w3.org/1999/xlink" x="0px" y="0px"
	 viewBox="0 0 500 500" style="enable-background:new 0 0 500 500;" xml:space="preserve">
<style type="text/css">
	.st0{fill:#F26C6C;}
	.st1{fill:#FFFFFF;}
</style>
<g>
	<path class="st0" d="M400.1,479.5H99.9c-43.8,0-79.4-35.5-79.4-79.4V99.9C20.5,56,56,20.5,99.9,20.5h300.3
		c43.8,0,79.4,35.5,79.4,79.4v300.3C479.5,444,444,479.5,400.1,479.5z"/>
</g>
<path class="st1" d="M261.5,376.5h-22.9c-5.5,0-10-4.5-10-10v-233c0-5.5,4.5-10,10-10h22.9c5.5,0,10,4.5,10,10v232.9
	C271.5,372,267,376.5,261.5,376.5z"/>
<path class="st1" d="M376.5,238.5v22.9c0,5.5-4.5,10-10,10h-233c-5.5,0-10-4.5-10-10v-22.9c0-5.5,4.5-10,10-10h232.9
	C372,228.5,376.5,233,376.5,238.5z"/>
<path class="st1" d="M396,339.7c-33.3,0-60.2,26.9-60.2,60.2s26.9,60.2,60.2,60.2s60.2-26.9,60.2-60.2S429.2,339.7,396,339.7z
	 M357.1,399.9h-7.8c0-25.7,20.9-46.6,46.6-46.6v7.8C374.6,361,357.1,378.5,357.1,399.9z M396,423.2c-12.9,0-23.3-10.4-23.3-23.3
	s10.4-23.3,23.3-23.3s23.3,10.4,23.3,23.3S408.8,423.2,396,423.2z M396,392.1c-4.3,0-7.8,3.5-7.8,7.8c0,4.3,3.5,7.8,7.8,7.8
	c4.3,0,7.8-3.5,7.8-7.8C403.7,395.6,400.3,392.1,396,392.1z"/>
</svg>
