<?xml version="1.0" encoding="utf-8"?>
<!-- Generator: Adobe Illustrator 26.0.1, SVG Export Plug-In . SVG Version: 6.00 Build 0)  -->
<svg version="1.1" id="Слой_1" xmlns="http://www.w3.org/2000/svg" xmlns:xlink="http://www.w3.org/1999/xlink" x="0px" y="0px"
	 viewBox="0 0 512 512" style="enable-background:new 0 0 512 512;" xml:space="preserve">
<style type="text/css">
	.st0{display:none;}
	.st1{fill:#FFFFFF;}
</style>
<path class="st0" d="M267.8,342.9c7.1-9.8,4.9-23.6-4.9-30.7c-0.2-0.1-15-11.1-36.5-34.7c39.7-53.7,62.1-114.8,71.3-143.5H330
	c12.2,0,22-9.8,22-22s-9.8-22-22-22H214V70c0-12.2-9.8-22-22-22s-22,9.8-22,22v20H54c-12.2,0-22,9.8-22,22s9.8,22,22,22h197.2
	c-9.5,26.9-27.1,69.5-53.8,108.4c-31.4-41.7-43.1-68.6-43.2-68.9c-4.8-11.2-17.8-16.3-28.9-11.5c-11,4.7-16.1,17.4-11.7,28.5
	c0.6,1.4,14.6,34.2,52.9,83.9c0.9,1.2,1.8,2.4,2.7,3.5c-39.2,44.4-77.7,71.9-93.8,80.7c-10.7,5.8-14.6,19.2-8.8,29.9
	s19.2,14.6,29.9,8.8l0,0c2.2-1.2,48.6-26.9,101.6-85.6c22.5,24.1,38,35.4,38.9,36.1C246.9,355,260.7,352.8,267.8,342.9L267.8,342.9
	L267.8,342.9z"/>
<g>
	<circle class="st1" cx="187.5" cy="71.8" r="22.8"/>
	<path class="st1" d="M187.8,260.5V136.1c0-16.6-13.4-30-30-30s-30,13.4-30,30v183c0,3.5,0.6,6.8,1.7,9.9L187.8,260.5z"/>
	<path class="st1" d="M412.3,432.4L412.3,432.4l-88.1-213.5l-86,100.9l-46.5,112.6c-4.7,11.2,0.6,24.1,11.8,28.8
		c11.2,4.7,24.1-0.6,28.8-11.8c0-0.1,0.1-0.1,0.1-0.2l18.3-44.4h102.7l18.3,44.4c3.4,8.2,11.4,13.6,20.3,13.6c12.2,0,22-9.9,22-22
		C414,437.9,413.4,435.1,412.3,432.4z M268.8,360.8l33.2-80.4l33.2,80.4H268.8z"/>
	<path class="st1" d="M315.3,184.7L151,383.4c-4.4,5.3-12.3,6.1-17.6,1.7l0,0c-5.3-4.4-6.1-12.3-1.7-17.6L296,168.8
		c4.4-5.3,12.3-6.1,17.6-1.7l0,0C319,171.5,319.7,179.4,315.3,184.7z"/>
	<circle class="st1" cx="120.8" cy="71.8" r="22.8"/>
</g>
</svg>
