<?xml version="1.0" encoding="utf-8"?>
<!-- Generator: Adobe Illustrator 26.0.1, SVG Export Plug-In . SVG Version: 6.00 Build 0)  -->
<svg version="1.1" id="Слой_1" xmlns="http://www.w3.org/2000/svg" xmlns:xlink="http://www.w3.org/1999/xlink" x="0px" y="0px"
	 viewBox="0 0 500 500" style="enable-background:new 0 0 500 500;" xml:space="preserve">
<style type="text/css">
	.st0{fill:#F26C6C;}
	.st1{fill:#FFFFFF;}
</style>
<g>
	<path class="st0" d="M400.1,479.5H99.9c-43.8,0-79.4-35.5-79.4-79.4V99.9C20.5,56,56,20.5,99.9,20.5h300.3
		c43.8,0,79.4,35.5,79.4,79.4v300.3C479.5,444,444,479.5,400.1,479.5z"/>
</g>
<path class="st1" d="M444.2,347.6c-6.7-12.4-36.8-15-40.2-15.4l-3.8-0.3v76.3c-0.9-0.8-1.8-1.5-2.8-2.1c-7-3.8-15.2-4.4-22.6-1.5
	c-14.3,5-23.5,19.3-20.5,31.9c1.3,5.4,4.7,9.9,9.2,12.5c3.9,2.2,8.2,3.4,12.5,3.3c3.5,0,7-0.6,10.3-1.8c12.8-4.5,21.5-16.4,21-27.9
	v-66.2c3.5,0.5,8.2,1.2,13.2,2.4c5,0.8,9.8,2.7,14.1,5.5c3.5,2.5,1.3,7.1,1.1,7.5c-1.7,2.7-3.6,5.3-5.8,7.5c-1.4,1.5-1.4,3.8,0,5.3
	c1.2,1.4,3.2,1.5,4.6,0.3C435.4,384.1,453.9,365.9,444.2,347.6z"/>
<path class="st1" d="M310.4,287.5h-12l-4.3-4.1c18.2-21.3,27.6-50.3,22.5-81.1c-7.1-42.2-42.4-75.9-84.9-81.1
	c-64.2-7.9-118.3,46.2-110.4,110.4c5.2,42.5,38.9,77.8,81.1,84.9c30.8,5.2,59.8-4.3,81.1-22.5l4.1,4.3v12l52.5,55.7
	c6.2,6.2,16.4,6.2,22.6,0c6.2-6.2,6.2-16.4,0-22.6L310.4,287.5z M219.3,287.5c-37.8,0-68.3-30.5-68.3-68.3s30.5-68.3,68.3-68.3
	s68.3,30.5,68.3,68.3S257.1,287.5,219.3,287.5z"/>
</svg>
