<?xml version="1.0" encoding="utf-8"?>
<!-- Generator: Adobe Illustrator 26.0.1, SVG Export Plug-In . SVG Version: 6.00 Build 0)  -->
<svg version="1.1" id="Слой_1" xmlns="http://www.w3.org/2000/svg" xmlns:xlink="http://www.w3.org/1999/xlink" x="0px" y="0px"
	 viewBox="0 0 500 500" style="enable-background:new 0 0 500 500;" xml:space="preserve">
<style type="text/css">
	.st0{fill:#F26C6C;}
	.st1{fill:#FFFFFF;}
</style>
<g>
	<path class="st0" d="M400.1,479.5H99.9c-43.8,0-79.4-35.5-79.4-79.4V99.9C20.5,56,56,20.5,99.9,20.5h300.3
		c43.8,0,79.4,35.5,79.4,79.4v300.3C479.5,444,444,479.5,400.1,479.5z"/>
</g>
<path class="st1" d="M310.4,287.5h-12l-4.3-4.1c18.2-21.3,27.6-50.3,22.5-81.1c-7.1-42.2-42.4-75.9-84.9-81.1
	c-64.2-7.9-118.3,46.2-110.4,110.4c5.2,42.5,38.9,77.8,81.1,84.9c30.8,5.2,59.8-4.3,81.1-22.5l4.1,4.3v12l52.5,55.7
	c6.2,6.2,16.4,6.2,22.6,0s6.2-16.4,0-22.6L310.4,287.5z M219.3,287.5c-37.8,0-68.3-30.5-68.3-68.3s30.5-68.3,68.3-68.3
	s68.3,30.5,68.3,68.3S257.1,287.5,219.3,287.5z"/>
<path class="st1" d="M407.3,353.1c-29.6,0-53.5,24-53.5,53.5s24,53.5,53.5,53.5c29.6,0,53.5-24,53.5-53.5S436.8,353.1,407.3,353.1z
	 M372.7,406.7h-6.9c0-22.9,18.6-41.4,41.4-41.4v6.9C388.2,372.1,372.7,387.6,372.7,406.7z M407.3,427.4c-11.4,0-20.7-9.3-20.7-20.7
	s9.3-20.7,20.7-20.7c11.4,0,20.7,9.3,20.7,20.7S418.7,427.4,407.3,427.4z M407.3,399.8c-3.8,0-6.9,3.1-6.9,6.9
	c0,3.8,3.1,6.9,6.9,6.9c3.8,0,6.9-3.1,6.9-6.9C414.2,402.9,411.1,399.8,407.3,399.8z"/>
</svg>
