<?xml version="1.0" encoding="utf-8"?>
<!-- Generator: Adobe Illustrator 26.0.1, SVG Export Plug-In . SVG Version: 6.00 Build 0)  -->
<svg version="1.1" id="Слой_1" xmlns="http://www.w3.org/2000/svg" xmlns:xlink="http://www.w3.org/1999/xlink" x="0px" y="0px"
	 viewBox="0 0 1500 500" style="enable-background:new 0 0 1500 500;" xml:space="preserve">
<style type="text/css">
	.st0{fill:#F26C6C;stroke:#F26C6C;stroke-width:7;stroke-miterlimit:10;}
	.st1{fill:#F26C6C;}
	.st2{fill:#FFFFFF;}
	.st3{font-family:'Poppins-Regular';}
	.st4{font-size:115.7994px;}
</style>
<line class="st0" x1="318" y1="250" x2="689.5" y2="250.5"/>
<line class="st0" x1="811.4" y1="249.8" x2="1182.9" y2="250.3"/>
<g>
	<path class="st1" d="M1243.4,198.9c28,0,50.9,22.8,50.9,50.9s-22.8,50.9-50.9,50.9s-50.9-22.8-50.9-50.9S1215.3,198.9,1243.4,198.9
		 M1243.4,188.8c-33.7,0-61,27.3-61,61s27.3,61,61,61c33.7,0,61-27.3,61-61S1277.1,188.8,1243.4,188.8L1243.4,188.8z"/>
</g>
<g>
	<path class="st1" d="M1229.1,219.2c3.9-3.2,8.9-4.7,15.1-4.7c4.1,0,7.7,0.7,10.7,2.2c3,1.5,5.3,3.5,6.8,6.1
		c1.6,2.6,2.3,5.4,2.3,8.7c0,3.8-1.1,7-3.2,9.8c-2.2,2.7-5,4.5-8.4,5.3v0.5c4,1,7.1,2.9,9.4,5.7c2.3,2.9,3.5,6.6,3.5,11.2
		c0,3.5-0.8,6.6-2.4,9.4c-1.6,2.8-4,4.9-7.1,6.5c-3.2,1.6-7,2.4-11.4,2.4c-6.4,0-11.7-1.7-15.9-5.1c-4.1-3.4-6.4-8.2-6.9-14.4h8
		c0.4,3.6,1.9,6.6,4.5,8.9c2.6,2.3,6,3.5,10.2,3.5s7.5-1.1,9.7-3.3c2.2-2.2,3.3-5.1,3.3-8.6c0-4.6-1.5-7.8-4.6-9.9
		c-3-2-7.6-3-13.8-3h-2.1v-6.9h2.2c5.6-0.1,9.8-1,12.7-2.8c2.9-1.8,4.3-4.6,4.3-8.3c0-3.2-1-5.8-3.1-7.8c-2.1-1.9-5.1-2.9-9-2.9
		c-3.8,0-6.8,1-9.1,2.9c-2.3,1.9-3.7,4.6-4.1,7.8h-8.1C1223,226.7,1225.2,222.3,1229.1,219.2z"/>
</g>
<g>
	<path class="st1" d="M257,199.1c28,0,50.9,22.8,50.9,50.9S285,300.9,257,300.9S206.1,278,206.1,250S229,199.1,257,199.1 M257,189
		c-33.7,0-61,27.3-61,61s27.3,61,61,61s61-27.3,61-61S290.7,189,257,189L257,189z"/>
</g>
<g>
	<path class="st1" d="M244.2,222.5v-7.6h17.2v66H253v-58.4H244.2z"/>
</g>
<g>
	<circle class="st1" cx="753.5" cy="249.5" r="79.5"/>
</g>
<text transform="matrix(1 0 0 1 716.708 290.7256)" class="st2 st3 st4">2</text>
</svg>
