<?xml version="1.0" encoding="utf-8"?>
<!-- Generator: Adobe Illustrator 26.0.1, SVG Export Plug-In . SVG Version: 6.00 Build 0)  -->
<svg version="1.1" id="Слой_1" xmlns="http://www.w3.org/2000/svg" xmlns:xlink="http://www.w3.org/1999/xlink" x="0px" y="0px"
	 viewBox="0 0 1500 500" style="enable-background:new 0 0 1500 500;" xml:space="preserve">
<style type="text/css">
	.st0{fill:#F26C6C;}
	.st1{fill:#FFFFFF;}
	.st2{fill:#F26C6C;stroke:#F26C6C;stroke-width:7;stroke-miterlimit:10;}
</style>
<g>
	<circle class="st0" cx="238.5" cy="249.5" r="79.5"/>
</g>
<g>
	<path class="st1" d="M221.3,216.6V207h21.8v83.7h-10.7v-74.1H221.3z"/>
</g>
<line class="st2" x1="318" y1="250" x2="689.5" y2="250.5"/>
<g>
	<path class="st0" d="M750,199.1c28,0,50.9,22.8,50.9,50.9S778,300.9,750,300.9S699.1,278,699.1,250S722,199.1,750,199.1 M750,189
		c-33.7,0-61,27.3-61,61s27.3,61,61,61s61-27.3,61-61S783.7,189,750,189L750,189z"/>
</g>
<g>
	<path class="st0" d="M746.6,259.9c4.4-4,8.1-8.2,11.1-12.5c3-4.3,4.5-8.6,4.5-12.8c0-4-1-7.1-2.9-9.4s-5-3.4-9.3-3.4
		c-4.1,0-7.3,1.3-9.6,3.9c-2.3,2.6-3.5,6-3.7,10.4h-8c0.2-6.8,2.3-12.1,6.2-15.8c3.9-3.7,8.9-5.6,15.1-5.6c6.3,0,11.2,1.7,14.9,5.2
		c3.7,3.5,5.5,8.2,5.5,14.3c0,5.1-1.5,10-4.5,14.7c-3,4.8-6.4,9-10.3,12.6c-3.8,3.6-8.7,7.8-14.7,12.6h31.4v6.9h-43.9v-5.9
		C736.1,269,742.2,263.9,746.6,259.9z"/>
</g>
<line class="st2" x1="811.4" y1="249.8" x2="1182.9" y2="250.3"/>
<g>
	<path class="st0" d="M1243.4,198.9c28,0,50.9,22.8,50.9,50.9s-22.8,50.9-50.9,50.9s-50.9-22.8-50.9-50.9S1215.3,198.9,1243.4,198.9
		 M1243.4,188.8c-33.7,0-61,27.3-61,61s27.3,61,61,61c33.7,0,61-27.3,61-61S1277.1,188.8,1243.4,188.8L1243.4,188.8z"/>
</g>
<g>
	<path class="st0" d="M1229.1,219.2c3.9-3.2,8.9-4.7,15.1-4.7c4.1,0,7.7,0.7,10.7,2.2c3,1.5,5.3,3.5,6.8,6.1
		c1.6,2.6,2.3,5.4,2.3,8.7c0,3.8-1.1,7-3.2,9.8c-2.2,2.7-5,4.5-8.4,5.3v0.5c4,1,7.1,2.9,9.4,5.7c2.3,2.9,3.5,6.6,3.5,11.2
		c0,3.5-0.8,6.6-2.4,9.4c-1.6,2.8-4,4.9-7.1,6.5c-3.2,1.6-7,2.4-11.4,2.4c-6.4,0-11.7-1.7-15.9-5.1c-4.1-3.4-6.4-8.2-6.9-14.4h8
		c0.4,3.6,1.9,6.6,4.5,8.9c2.6,2.3,6,3.5,10.2,3.5s7.5-1.1,9.7-3.3c2.2-2.2,3.3-5.1,3.3-8.6c0-4.6-1.5-7.8-4.6-9.9
		c-3-2-7.6-3-13.8-3h-2.1v-6.9h2.2c5.6-0.1,9.8-1,12.7-2.8c2.9-1.8,4.3-4.6,4.3-8.3c0-3.2-1-5.8-3.1-7.8c-2.1-1.9-5.1-2.9-9-2.9
		c-3.8,0-6.8,1-9.1,2.9c-2.3,1.9-3.7,4.6-4.1,7.8h-8.1C1223,226.7,1225.2,222.3,1229.1,219.2z"/>
</g>
</svg>
