<?xml version="1.0" encoding="utf-8"?>
<!-- Generator: Adobe Illustrator 26.0.1, SVG Export Plug-In . SVG Version: 6.00 Build 0)  -->
<svg version="1.1" id="Слой_1" xmlns="http://www.w3.org/2000/svg" xmlns:xlink="http://www.w3.org/1999/xlink" x="0px" y="0px"
	 viewBox="0 0 1500 500" style="enable-background:new 0 0 1500 500;" xml:space="preserve">
<style type="text/css">
	.st0{fill:#F26C6C;stroke:#F26C6C;stroke-width:7;stroke-miterlimit:10;}
	.st1{fill:#F26C6C;}
	.st2{fill:#FFFFFF;}
</style>
<line class="st0" x1="318" y1="250" x2="689.5" y2="250.5"/>
<line class="st0" x1="811.4" y1="249.8" x2="1182.9" y2="250.3"/>
<g>
	<path class="st1" d="M257,199.1c28,0,50.9,22.8,50.9,50.9S285,300.9,257,300.9S206.1,278,206.1,250S229,199.1,257,199.1 M257,189
		c-33.7,0-61,27.3-61,61s27.3,61,61,61s61-27.3,61-61S290.7,189,257,189L257,189z"/>
</g>
<g>
	<path class="st1" d="M244.2,222.5v-7.6h17.2v66H253v-58.4H244.2z"/>
</g>
<g>
	<circle class="st1" cx="1261.5" cy="249.5" r="79.5"/>
</g>
<g>
	<path class="st2" d="M1239.9,211.4c4.9-4,11.3-6,19.2-6c5.2,0,9.8,0.9,13.6,2.8c3.8,1.9,6.7,4.5,8.7,7.7c2,3.2,3,6.9,3,11
		c0,4.8-1.4,8.9-4.1,12.4c-2.7,3.5-6.3,5.7-10.7,6.7v0.6c5,1.2,9,3.7,11.9,7.3c2.9,3.6,4.4,8.4,4.4,14.2c0,4.4-1,8.4-3,11.9
		c-2,3.5-5,6.3-9,8.3c-4,2-8.8,3-14.5,3c-8.2,0-14.9-2.1-20.1-6.4c-5.3-4.3-8.2-10.4-8.8-18.2h10.2c0.5,4.6,2.4,8.4,5.7,11.3
		c3.2,2.9,7.6,4.4,13,4.4c5.4,0,9.5-1.4,12.3-4.2c2.8-2.8,4.2-6.5,4.2-10.9c0-5.8-1.9-10-5.8-12.5c-3.9-2.5-9.7-3.8-17.5-3.8h-2.7
		v-8.8h2.8c7.1-0.1,12.5-1.3,16.1-3.5c3.6-2.3,5.4-5.8,5.4-10.6c0-4.1-1.3-7.4-4-9.8c-2.7-2.5-6.5-3.7-11.4-3.7
		c-4.8,0-8.6,1.2-11.6,3.7c-2.9,2.5-4.7,5.8-5.2,10h-10.3C1232.2,221,1234.9,215.4,1239.9,211.4z"/>
</g>
<g>
	<path class="st1" d="M751,198.1c28,0,50.9,22.8,50.9,50.9S779,299.9,751,299.9S700.1,277,700.1,249S723,198.1,751,198.1 M751,188
		c-33.7,0-61,27.3-61,61s27.3,61,61,61s61-27.3,61-61S784.7,188,751,188L751,188z"/>
</g>
<g>
	<path class="st1" d="M746.6,256.9c4.4-4,8.1-8.2,11.1-12.5c3-4.3,4.5-8.6,4.5-12.8c0-4-1-7.1-2.9-9.4s-5-3.4-9.3-3.4
		c-4.1,0-7.3,1.3-9.6,3.9c-2.3,2.6-3.5,6-3.7,10.4h-8c0.2-6.8,2.3-12.1,6.2-15.8c3.9-3.7,8.9-5.6,15.1-5.6c6.3,0,11.2,1.7,14.9,5.2
		c3.7,3.5,5.5,8.2,5.5,14.3c0,5.1-1.5,10-4.5,14.7c-3,4.8-6.4,9-10.3,12.6c-3.8,3.6-8.7,7.8-14.7,12.6h31.4v6.9h-43.9v-5.9
		C736.1,266,742.2,260.9,746.6,256.9z"/>
</g>
</svg>
